<svg width="25" height="27" viewBox="0 0 25 27" fill="none" xmlns="http://www.w3.org/2000/svg">
<path d="M23.8281 6.75H23.4375V4.21875C23.4375 1.85625 18.5938 0 12.5 0C6.40625 0 1.5625 1.85625 1.5625 4.21875V6.75H1.17188C0.527344 6.75 0 7.31426 0 8.01562V12.2344C0 12.9305 0.527344 13.5 1.17188 13.5H1.5625V21.9375C1.5625 22.8709 2.26074 23.625 3.125 23.625V25.3125C3.125 26.2459 3.82324 27 4.6875 27H6.25C7.11426 27 7.8125 26.2459 7.8125 25.3125V23.625H17.1875V25.3125C17.1875 26.2459 17.8857 27 18.75 27H20.3125C21.1768 27 21.875 26.2459 21.875 25.3125V23.625H22.1875C22.9688 23.625 23.4375 22.95 23.4375 22.275V13.5H23.8281C24.4727 13.5 25 12.9305 25 12.2344V8.01562C25 7.31426 24.4727 6.75 23.8281 6.75ZM5.46875 21.0938C4.60449 21.0938 3.90625 20.3396 3.90625 19.4062C3.90625 18.4729 4.60449 17.7188 5.46875 17.7188C6.33301 17.7188 7.03125 18.4729 7.03125 19.4062C7.03125 20.3396 6.33301 21.0938 5.46875 21.0938ZM6.25 15.1875C5.38574 15.1875 4.6875 14.4334 4.6875 13.5V6.75C4.6875 5.8166 5.38574 5.0625 6.25 5.0625H18.75C19.6143 5.0625 20.3125 5.8166 20.3125 6.75V13.5C20.3125 14.4334 19.6143 15.1875 18.75 15.1875H6.25ZM19.5312 21.0938C18.667 21.0938 17.9688 20.3396 17.9688 19.4062C17.9688 18.4729 18.667 17.7188 19.5312 17.7188C20.3955 17.7188 21.0938 18.4729 21.0938 19.4062C21.0938 20.3396 20.3955 21.0938 19.5312 21.0938Z" fill="#122C3D"/>
</svg>
