<svg width="30" height="30" viewBox="0 0 30 30" fill="none" xmlns="http://www.w3.org/2000/svg">
<path d="M15.0002 2.14288C7.97931 2.14288 2.14307 7.81635 2.14307 15C2.14307 22.1837 7.97931 27.8572 15.0002 27.8572C22.0211 27.8572 27.8574 22.1837 27.8574 15C27.8574 7.81635 22.0211 2.14288 15.0002 2.14288ZM15.0002 4.08574C21.2257 4.08574 26.1277 9.0551 26.1277 15C26.1277 20.945 21.2257 25.9143 15.0002 25.9143C8.77476 25.9143 3.87273 20.945 3.87273 15C3.87273 9.0551 8.77476 4.08574 15.0002 4.08574ZM11.3103 5.85717V11.3429H5.77535V18.6572H11.3103V24.1429H18.6902V18.6572H24.2251V11.3429H18.6902V5.85717H11.3103Z" fill="black"/>
</svg>
