<svg width="29" height="29" viewBox="0 0 29 29" fill="none" xmlns="http://www.w3.org/2000/svg">
<path d="M22.5135 4.61383C23.7881 4.61158 24.8199 3.57951 24.8174 2.30399C24.8199 1.03364 23.7881 0.00157495 22.5135 0C21.2422 0.00157495 20.2099 1.03364 20.2095 2.30399C20.2099 3.57951 21.2422 4.61158 22.5135 4.61383Z" fill="black"/>
<path d="M22.1736 19.2327V27.2159C22.175 28.6689 20.0015 28.6689 20.0019 27.2159V19.2903H17.0817L20.2035 8.46154H19.7198L17.9054 14.5727C17.4709 15.9034 15.6421 15.3562 16.0622 13.9277L18.0782 7.29222C18.2917 6.53825 19.2484 5.19703 20.9064 5.19568H24.0744C25.7174 5.19703 26.6786 6.54972 26.9256 7.29222L28.9416 13.922C29.3461 15.349 27.5318 15.9394 27.0984 14.5498L25.284 8.46154H24.7598L27.9048 19.2903H24.9843V27.2276C24.983 28.6689 22.8185 28.6617 22.8187 27.2276V19.2327H22.1736Z" fill="black"/>
<path d="M5.51494 4.69785C6.81208 4.69785 7.86364 3.64607 7.86364 2.34892C7.86364 1.05178 6.81208 0 5.51494 0C4.21757 0 3.16602 1.05178 3.16602 2.34892C3.16602 3.64607 4.21757 4.69785 5.51494 4.69785Z" fill="black"/>
<path d="M3.00098 5.21619C1.33759 5.21619 0 6.57287 0 8.2648V15.4765C0 16.8786 2.05188 16.8786 2.05188 15.4765V8.88225H2.53767V26.9385C2.53767 28.8131 5.27014 28.7578 5.27014 26.9385V16.457H5.74064V26.9385C5.74064 28.7578 8.48817 28.8131 8.48817 26.9385V8.88225H8.96249V15.4765C8.96249 16.8894 11.0038 16.8894 11 15.4765V8.30794C11 6.74768 9.78846 5.21933 7.96217 5.21933L3.00098 5.21619Z" fill="black"/>
<rect x="13" width="1" height="29" fill="#D9D9D9"/>
</svg>
