<?xml version="1.0" standalone="no"?>
<!DOCTYPE svg PUBLIC "-//W3C//DTD SVG 20010904//EN"
 "http://www.w3.org/TR/2001/REC-SVG-20010904/DTD/svg10.dtd">
<svg version="1.0" xmlns="http://www.w3.org/2000/svg"
 width="476.000000pt" height="524.000000pt" viewBox="0 0 476.000000 524.000000"
 preserveAspectRatio="xMidYMid meet">

<g transform="translate(0.000000,524.000000) scale(0.100000,-0.100000)"
fill="#000000" stroke="none">
<path d="M2205 5215 c-160 -30 -301 -108 -430 -239 -117 -118 -201 -274 -236
-435 -19 -83 -16 -264 5 -336 100 -350 333 -576 666 -645 350 -73 721 89 903
394 50 84 104 242 118 346 20 150 -25 351 -114 510 -61 110 -206 251 -317 311
-104 55 -153 74 -248 94 -88 18 -250 18 -347 0z"/>
<path d="M1665 3260 c-89 -10 -227 -60 -307 -112 -113 -73 -241 -210 -335
-358 -76 -121 -121 -206 -260 -486 -140 -283 -201 -425 -272 -635 -71 -212
-85 -287 -85 -449 0 -165 10 -222 64 -363 49 -125 105 -219 190 -318 78 -91
128 -131 255 -211 261 -164 557 -266 872 -302 176 -20 278 -20 384 0 128 23
186 42 274 88 205 105 291 280 227 458 -35 99 -76 137 -185 176 -67 24 -89 26
-317 33 -135 4 -283 12 -330 18 -177 24 -351 75 -507 147 -125 58 -183 98
-183 129 0 21 7 25 53 34 28 6 108 15 177 21 243 21 420 93 420 171 0 16 -16
61 -35 100 -20 38 -52 113 -72 167 -34 90 -37 105 -37 212 -1 108 1 118 26
162 40 67 84 90 179 96 71 4 82 2 123 -22 55 -32 95 -81 171 -211 130 -222
266 -394 376 -476 81 -60 235 -123 342 -140 48 -7 115 -10 172 -6 114 8 114 6
9 -87 -190 -172 -254 -327 -190 -461 59 -125 169 -185 339 -185 196 0 370 64
567 208 93 68 319 293 389 387 68 92 145 249 171 353 27 104 30 301 6 408 -41
188 -178 474 -429 894 -146 243 -307 421 -440 484 -39 19 -103 45 -142 57
l-70 24 -760 1 c-418 1 -791 -2 -830 -6z m1560 -795 c220 -71 382 -265 415
-496 23 -163 -32 -335 -149 -461 -148 -160 -332 -224 -552 -192 -210 31 -397
189 -469 397 -30 87 -38 232 -16 317 37 147 124 272 247 356 71 48 188 96 264
108 63 9 182 -4 260 -29z"/>
</g>
</svg>
