<svg width="14" height="24" viewBox="0 0 14 24" fill="none" xmlns="http://www.w3.org/2000/svg">
<path d="M2.35232 12.7411C2.28493 12.7398 2.28493 12.7398 2.21777 12.7335C1.47466 12.6509 0.932503 11.9147 1.00681 11.0889L1.72291 2.35311C1.79203 1.58496 2.37372 1 3.06842 1H8.30491C8.45451 1 8.60306 1.02757 8.74445 1.08162C9.45069 1.35138 9.8264 2.20629 9.58363 2.9911L7.83651 7.80819L11.0592 7.80821C11.2977 7.80821 11.5319 7.87827 11.7381 8.0113C12.384 8.42793 12.6036 9.34748 12.2287 10.0652C11.7424 11.0215 6.85476 19.2355 5.27531 21.8862C5.14964 22.0971 4.82779 21.9938 4.84211 21.7485L5.37094 12.7335L2.35232 12.7411Z" stroke="black" stroke-width="2" stroke-linecap="round" stroke-linejoin="round"/>
</svg>
