<svg width="18" height="25" viewBox="0 0 18 25" fill="none" xmlns="http://www.w3.org/2000/svg">
<path d="M8.86139 0C6.87077 0.000951447 4.12315 0.701216 2.98507 1.28469C1.84931 1.86864 1.09136 2.45212 0.854864 3.90926L0 12.0018V23.1451H1.47265L2.5687 22.7062C2.56639 24.8388 2.56696 24.8388 2.5687 22.7062L4.00326 23.1451H13.5467L14.5649 22.7062C14.5624 24.8388 14.5665 24.8388 14.5649 22.7062L16.0822 23.1451H17.55V12.0018L16.6949 3.90926C16.4586 2.45212 15.7007 1.86864 14.5649 1.28469C13.4268 0.701216 10.6792 0.000951447 8.68841 0" fill="white"/>
<path d="M14.8119 19.65C15.4834 19.6524 16.0271 18.9823 16.0276 18.1581C16.0271 17.3299 15.4834 16.6601 14.8119 16.6601C14.1424 16.6601 13.5986 17.3299 13.6011 18.1581C13.5986 18.9823 14.1424 19.6524 14.8119 19.65Z" fill="#122C3D"/>
<path d="M2.73786 19.65C2.06621 19.6524 1.52255 18.9823 1.52197 18.1581C1.52255 17.3299 2.06621 16.6601 2.73786 16.6601C3.40738 16.6601 3.95104 17.3299 3.94872 18.1581C3.95104 18.9823 3.40738 19.6524 2.73786 19.65Z" fill="#122C3D"/>
<path d="M8.68376 3.35503H5.16488C4.45481 3.35693 4.45481 2.0437 5.16488 2.04584H12.3855C13.0953 2.0437 13.0953 3.35693 12.3855 3.35503H8.68376Z" fill="#122C3D"/>
<path d="M8.6833 4.68256H3.25159C2.49866 4.68279 2.30251 5.15257 2.21371 5.86402L1.5465 11.734C1.48588 12.2946 1.61793 12.8529 2.24846 12.8543H15.301C15.9315 12.8529 16.0635 12.2946 16.0027 11.734L15.3355 5.86402C15.2467 5.15257 15.0508 4.68279 14.2976 4.68256H8.6833Z" fill="#122C3D"/>
<rect y="21.7241" width="17.55" height="2.41379" fill="#122C3D"/>
</svg>
