<svg width="37" height="27" viewBox="0 0 37 27" fill="none" xmlns="http://www.w3.org/2000/svg">
<path d="M2 20.15V25.1" stroke="black" stroke-width="3" stroke-linecap="round" stroke-linejoin="round"/>
<path d="M18.5 15.2V5.3C18.5 3.47746 19.9774 2 21.8 2H28.4C30.2226 2 31.7 3.47746 31.7 5.3V8.6" stroke="black" stroke-width="3" stroke-linecap="round" stroke-linejoin="round"/>
<path d="M18.4998 15.2V5.3C18.4998 3.47746 17.0224 2 15.1998 2H8.5998C6.77726 2 5.2998 3.47746 5.2998 5.3V8.6" stroke="black" stroke-width="3" stroke-linecap="round" stroke-linejoin="round"/>
<path d="M31.7 8.59998C29.8774 8.59998 28.4 10.0774 28.4 11.9V15.2H8.6V11.9C8.6 10.0774 7.12254 8.59998 5.3 8.59998C3.47746 8.59998 2 10.0774 2 11.9V21.8H35V11.9C35 10.0774 33.5226 8.59998 31.7 8.59998Z" stroke="black" stroke-width="3" stroke-linecap="round" stroke-linejoin="round"/>
<path d="M35 20.15V25.1" stroke="black" stroke-width="3" stroke-linecap="round" stroke-linejoin="round"/>
</svg>
