<?xml version="1.0" standalone="no"?>
<!DOCTYPE svg PUBLIC "-//W3C//DTD SVG 20010904//EN"
 "http://www.w3.org/TR/2001/REC-SVG-20010904/DTD/svg10.dtd">
<svg version="1.0" xmlns="http://www.w3.org/2000/svg"
 width="120.000000pt" height="120.000000pt" viewBox="0 0 120.000000 120.000000"
 preserveAspectRatio="xMidYMid meet">

<g transform="translate(0.000000,120.000000) scale(0.100000,-0.100000)"
fill="#000000" stroke="none">
<path d="M547 1119 c-24 -14 -47 -62 -47 -99 0 -31 31 -71 75 -96 20 -11 20
-12 1 -32 -10 -12 -35 -27 -55 -33 -51 -17 -103 -52 -136 -91 -33 -39 -75
-124 -75 -154 0 -11 -9 -29 -20 -39 -24 -22 -25 -38 -5 -55 11 -9 15 -27 13
-59 -3 -39 -7 -47 -25 -49 -12 -2 -38 -21 -57 -43 l-36 -39 0 -129 c0 -187
-38 -171 422 -171 l369 0 24 25 c24 23 25 30 25 150 l0 125 -36 39 c-19 22
-45 41 -57 43 -18 2 -22 10 -25 49 -2 32 2 50 13 59 20 17 19 33 -5 55 -11 10
-20 27 -20 37 0 28 -45 117 -80 160 -17 20 -58 50 -92 67 -62 31 -98 58 -98
72 0 4 16 16 35 28 44 26 45 38 1 33 -73 -9 -114 81 -61 133 l24 25 -27 0
c-15 0 -35 -5 -45 -11z m-147 -599 c6 -12 10 -38 8 -58 -2 -30 -7 -38 -25 -40
-21 -3 -23 0 -23 51 0 29 3 57 7 60 11 12 22 8 33 -13z m104 4 c3 -9 6 -36 6
-60 0 -44 -1 -45 -27 -42 -23 2 -29 9 -31 34 -6 60 35 113 52 68z m114 4 c7
-7 12 -34 12 -60 0 -47 -1 -48 -30 -48 -29 0 -30 1 -30 48 0 43 12 72 30 72 3
0 11 -5 18 -12z m120 -51 c3 -55 2 -57 -23 -57 -24 0 -25 3 -25 53 0 58 5 69
30 65 11 -2 16 -18 18 -61z m100 0 c3 -52 1 -57 -18 -57 -18 0 -20 6 -20 53 0
30 3 57 7 61 17 16 28 -5 31 -57z m-449 -143 c31 -25 31 -27 31 -120 l0 -94
-75 0 -75 0 0 94 c0 87 2 95 26 120 33 33 54 33 93 0z m258 6 c39 -23 45 -43
41 -140 l-3 -75 -87 -3 -88 -3 0 95 c0 93 0 95 31 120 37 31 63 33 106 6z
m252 -6 c31 -25 31 -27 31 -120 l0 -94 -75 0 -75 0 0 95 c0 91 1 97 26 120 34
32 55 31 93 -1z"/>
</g>
</svg>
