<svg width="36" height="36" viewBox="0 0 36 36" fill="none" xmlns="http://www.w3.org/2000/svg">
<path d="M0.54126 27.9837C0.54126 32.1035 3.46449 35.4292 7.0858 35.4292C9.9654 35.4292 12.3214 33.3941 13.2377 30.4655H22.7927C23.6653 33.3941 26.065 35.4292 28.9446 35.4292C32.5659 35.4292 35.4891 32.1035 35.4891 27.9837C35.4891 23.8639 32.5659 20.5383 28.9446 20.5383C26.3268 20.5383 24.1452 22.226 23.0981 24.7078C22.7054 24.261 22.4 23.6654 22.4 23.0201V13.0929C22.4 9.02276 19.4332 5.64751 15.8555 5.64751H13.2813C12.4087 2.71898 10.009 0.683902 7.12943 0.683902C3.50812 0.683902 0.58489 4.00952 0.58489 8.12931C0.58489 12.2491 3.50812 15.5747 7.12943 15.5747C10.009 15.5747 12.3651 13.5396 13.2813 10.6111H15.8555C17.0771 10.6111 18.037 11.7031 18.037 13.0929V23.0201C18.037 23.8639 18.2115 24.7574 18.4297 25.5019L13.2377 25.5019C12.3651 22.5734 9.9654 20.5383 7.0858 20.5383C3.46449 20.5383 0.54126 23.8639 0.54126 27.9837Z" fill="#122C3D"/>
<path d="M30 3.57491C27.2333 3.57491 25 6.2427 25 9.54758C25 13.5294 30 19.502 30 19.502C30 19.502 35 13.5294 35 9.54758C35 6.2427 32.7667 3.57491 30 3.57491ZM30 5.5658C31.85 5.5658 33.3333 7.3576 33.3333 9.54758C33.3333 11.7575 31.85 13.5294 30 13.5294C28.1667 13.5294 26.6667 11.7575 26.6667 9.54758C26.6667 7.3576 28.1667 5.5658 30 5.5658Z" fill="#122C3D"/>
</svg>
