<svg width="36" height="37" viewBox="0 0 36 37" fill="none" xmlns="http://www.w3.org/2000/svg">
<path d="M20.7238 8.74126L27.4745 15.6795L15.2543 28.2391L8.50365 21.3009L20.7238 8.74126ZM16.2156 30.2375L29.4189 16.6674C29.6896 16.3892 29.825 16.0598 29.825 15.6795C29.825 15.2991 29.6896 14.9698 29.4189 14.6915L21.685 6.74286C21.4289 6.47959 21.1085 6.34796 20.7238 6.34796C20.3391 6.34796 20.0187 6.47959 19.7625 6.74286L6.55925 20.3129C6.28851 20.5912 6.15314 20.9205 6.15314 21.3009C6.15314 21.6812 6.28851 22.0106 6.55925 22.2888L14.2931 30.2375C14.5492 30.5007 14.8696 30.6324 15.2543 30.6324C15.639 30.6324 15.9594 30.5007 16.2156 30.2375ZM35.2097 16.25L15.8314 36.1877C15.3045 36.7292 14.66 37 13.8979 37C13.1358 37 12.4913 36.7292 11.9644 36.1877L9.27211 33.4206C10.0697 32.6008 10.4685 31.6053 10.4685 30.4342C10.4685 29.2631 10.0697 28.2676 9.27211 27.4478C8.47448 26.6281 7.50593 26.2182 6.36645 26.2182C5.22698 26.2182 4.25843 26.6281 3.4608 27.4478L0.790338 24.6807C0.263446 24.1392 0 23.4768 0 22.6936C0 21.9103 0.263446 21.2479 0.790338 20.7064L20.1686 0.812291C20.6955 0.270764 21.34 0 22.1021 0C22.8642 0 23.5087 0.270764 24.0356 0.812291L26.706 3.55694C25.9084 4.37672 25.5096 5.37218 25.5096 6.5433C25.5096 7.71442 25.9084 8.70988 26.706 9.52966C27.5036 10.3495 28.4722 10.7593 29.6117 10.7593C30.7511 10.7593 31.7197 10.3495 32.5173 9.52966L35.2097 12.2743C35.7366 12.8158 36 13.4782 36 14.2615C36 15.0447 35.7366 15.7085 35.2097 16.25Z" fill="#122C3D"/>
</svg>
