<svg width="19" height="37" viewBox="0 0 19 37" fill="none"
    xmlns="http://www.w3.org/2000/svg">
    <path d="M13.875 0C11.3313 0 9.25 2.08125 9.25 4.625C9.25 7.16875 11.3313 9.25 13.875 9.25C16.4188 9.25 18.5 7.16875 18.5 4.625C18.5 2.08125 16.4188 0 13.875 0ZM6.9375 11.5625C3.09875 11.5625 0 14.6613 0 18.5H4.625C4.625 17.205 5.6425 16.1875 6.9375 16.1875C8.2325 16.1875 9.25 17.205 9.25 18.5C9.25 19.795 4.625 26.085 4.625 30.0625C4.625 34.04 7.72375 37 11.5625 37C15.4012 37 18.5 33.9012 18.5 30.0625H13.875C13.875 31.3575 12.8575 32.375 11.5625 32.375C10.2675 32.375 9.25 31.3575 9.25 30.0625C9.25 28.3975 13.875 21.5525 13.875 18.5C13.875 14.7537 10.7762 11.5625 6.9375 11.5625Z" fill="#122C3D"/>
</svg>
