<svg width="39" height="35" viewBox="0 0 39 35" fill="none" xmlns="http://www.w3.org/2000/svg">
<path d="M8.86139 0C6.87077 0.000951447 4.12315 0.701216 2.98507 1.28469C1.84931 1.86864 1.09136 2.45212 0.854864 3.90926L0 12.0018V23.1451H1.47265L2.5687 22.7062C2.56639 24.8388 2.56696 24.8388 2.5687 22.7062L4.00326 23.1451H13.5467L14.5649 22.7062C14.5624 24.8388 14.5665 24.8388 14.5649 22.7062L16.0822 23.1451H17.55V12.0018L16.6949 3.90926C16.4586 2.45212 15.7007 1.86864 14.5649 1.28469C13.4268 0.701216 10.6792 0.000951447 8.68841 0" fill="#122C3D"/>
<path d="M14.8121 19.65C15.4835 19.6524 16.0272 18.9823 16.0278 18.1581C16.0272 17.3299 15.4835 16.6601 14.8121 16.6601C14.1425 16.6601 13.5987 17.3299 13.6012 18.1581C13.5987 18.9823 14.1425 19.6524 14.8121 19.65Z" fill="white"/>
<path d="M2.73786 19.65C2.06621 19.6524 1.52255 18.9823 1.52197 18.1581C1.52255 17.3299 2.06621 16.6601 2.73786 16.6601C3.40738 16.6601 3.95104 17.3299 3.94872 18.1581C3.95104 18.9823 3.40738 19.6524 2.73786 19.65Z" fill="white"/>
<path d="M8.68364 3.35505H5.16475C4.45468 3.35695 4.45468 2.04371 5.16475 2.04586H12.3853C13.0952 2.04371 13.0952 3.35695 12.3853 3.35505H8.68364Z" fill="white"/>
<path d="M8.68354 4.68254H3.25184C2.49891 4.68278 2.30276 5.15256 2.21395 5.864L1.54674 11.734C1.48612 12.2946 1.61817 12.8529 2.2487 12.8543H15.3012C15.9317 12.8529 16.0638 12.2946 16.003 11.734L15.3358 5.864C15.247 5.15256 15.051 4.68278 14.2979 4.68254H8.68354Z" fill="white"/>
<rect y="21.7241" width="17.55" height="2.41379" fill="white"/>
<path d="M27.3 6.03448V9.65517H21.45L18.525 13.2759L21.45 16.8966H27.3V35H30.225V20.5172H36.075L39 16.8966L36.075 13.2759H30.225V6.03448H27.3Z" fill="#122C3D"/>
</svg>
