<svg width="17" height="18" viewBox="0 0 17 18" fill="none" xmlns="http://www.w3.org/2000/svg">
<g clip-path="url(#clip0_10_15)">
<path d="M17 9.19943C17 8.46155 16.9421 7.92309 16.8169 7.3647H8.67346V10.6951H13.4535C13.3571 11.5228 12.8367 12.7692 11.6802 13.6068L11.664 13.7183L14.2388 15.7821L14.4172 15.8005C16.0555 14.235 17 11.9316 17 9.19943Z" fill="#4285F4"/>
<path d="M8.67349 17.9743C11.0153 17.9743 12.9813 17.1765 14.4172 15.8005L11.6803 13.6068C10.9479 14.1352 9.96485 14.5042 8.67349 14.5042C6.37986 14.5042 4.43316 12.9387 3.73922 10.7749L3.6375 10.7839L0.960184 12.9277L0.925171 13.0284C2.35146 15.96 5.28117 17.9743 8.67349 17.9743Z" fill="#34A853"/>
<path d="M3.73919 10.7749C3.55609 10.2165 3.45012 9.6182 3.45012 9C3.45012 8.38174 3.55609 7.78347 3.72956 7.22508L3.72471 7.10616L1.01384 4.92786L0.925148 4.97151C0.337305 6.18804 0 7.55415 0 9C0 10.4459 0.337305 11.8119 0.925148 13.0284L3.73919 10.7749Z" fill="#FBBC05"/>
<path d="M8.67349 3.49575C10.3022 3.49575 11.4008 4.22366 12.0272 4.83195L14.4751 2.35903C12.9717 0.913172 11.0153 0.0257111 8.67349 0.0257111C5.28117 0.0257111 2.35146 2.03992 0.925171 4.9715L3.72958 7.22507C4.43316 5.06128 6.37986 3.49575 8.67349 3.49575Z" fill="#EB4335"/>
</g>
<defs>
<clipPath id="clip0_10_15">
<rect width="17" height="18" fill="white"/>
</clipPath>
</defs>
</svg>
