<svg width="37" height="32" viewBox="0 0 37 32" fill="none" xmlns="http://www.w3.org/2000/svg">
<rect x="4.15784" y="27.0769" width="18.4737" height="4.92308" rx="2.46154" fill="#122C3D"/>
<rect x="18.5264" y="32" width="13.5385" height="4.10526" rx="2.05263" transform="rotate(-90 18.5264 32)" fill="#122C3D"/>
<path d="M8.10153 0.226273C3.61868 0.226273 0 4.4308 0 9.6394C0 15.9148 8.10153 25.3279 8.10153 25.3279C8.10153 25.3279 16.2031 15.9148 16.2031 9.6394C16.2031 4.4308 12.5844 0.226273 8.10153 0.226273ZM8.10153 3.36398C11.0991 3.36398 13.5025 6.18792 13.5025 9.6394C13.5025 13.1223 11.0991 15.9148 8.10153 15.9148C5.13097 15.9148 2.70051 13.1223 2.70051 9.6394C2.70051 6.18792 5.13097 3.36398 8.10153 3.36398Z" fill="#122C3D"/>
<rect x="18.5264" y="17.2308" width="12.3158" height="4.92308" rx="2.46154" fill="#122C3D"/>
<ellipse cx="32.3816" cy="19.0769" rx="4.61842" ry="5.53846" fill="#122C3D"/>
</svg>
