<svg width="38" height="36" viewBox="0 0 38 36" fill="none" xmlns="http://www.w3.org/2000/svg">
<ellipse cx="19" cy="17.5" rx="19" ry="17.5" fill="#122C3D"/>
<path d="M8.82043 33.2032V31.6368C8.82043 25.5807 13.3378 20.6714 18.9102 20.6714C24.4827 20.6714 29 25.5807 29 31.6368V33.2032" fill="#122C3D"/>
<path d="M8.82043 33.2032V31.6368C8.82043 25.5807 13.3378 20.6714 18.9102 20.6714C24.4827 20.6714 29 25.5807 29 31.6368V33.2032" stroke="white" stroke-width="5.08792" stroke-linecap="round" stroke-linejoin="round"/>
<path d="M18.9102 20.6714C22.0944 20.6714 24.6758 17.866 24.6758 14.4055C24.6758 10.9449 22.0944 8.13959 18.9102 8.13959C15.726 8.13959 13.1447 10.9449 13.1447 14.4055C13.1447 17.866 15.726 20.6714 18.9102 20.6714Z" fill="#122C3D" stroke="white" stroke-width="5.08792" stroke-linecap="round" stroke-linejoin="round"/>
</svg>
